# xmcd CD database file
#
# Track frame offsets:
#	150
#	13313
#	28213
#	41850
#	56875
#	71500
#	87775
#	101075
#	114050
#	125488
#	140575
#	156625
#	171575
#	186550
#	200775
#	215263
#	229575
#	243825
#
# Disc length: 3434 seconds
#
# Revision: 3
# Processed by: cddbd v1.4PL0 Copyright (c) Steve Scherf et al.
# Submitted via: CDex 1.50Beta7
#
DISCID=140d6812
DTITLE=Various Artist - Piano Blues -  Vol. 1 ~ The Twenties (1923-1930)
DYEAR=1987
DGENRE=Blues
TTITLE0=The Rocks - Clay Custer (1923)
TTITLE1=Deep See Blues - Q. Roscoe Snowden (1923)
TTITLE2=Misery Blues - Q. Roscoe Snowden (1923)
TTITLE3=Sure as You Take a Women from Somebody Else - L.C. Prigett (1927)
TTITLE4=When I Say Ta-Ta, It Means Good- Bye - L.C. Prigett (1927)
TTITLE5=Frowtown Blues - L.C. Prigett (1927)
TTITLE6=Willie´s Weary Blues - Willie Jones (1928)
TTITLE7=Blue Buddies Blues - Willie Jones (1928)
TTITLE8=Throw Me Down - unknown (¿Skip James¿) 1928
TTITLE9=Thieving Blues - Jack Ranger (1929)
TTITLE10=T.P. Window Blues - Jack Ranger (1929)
TTITLE11=Lonesome Grave Blues - Jack Ranger (1929)
TTITLE12=Number Nine Blues - Blind Clyde Church (1929)
TTITLE13=Pneumatic Blues - Blind Clyde Church (1929)
TTITLE14=How I Feel My Love - George Allison and Willie White (1929)
TTITLE15=I´ll be Mean to You Blues - George Allison and Willie White (1929)
TTITLE16=Station House Blues - Jesse Clayton (1930)
TTITLE17=Neckbone Blues - Jesse Clayton (1930)
EXTD=YEAR: 1987
EXTT0=
EXTT1=
EXTT2=
EXTT3=
EXTT4=
EXTT5=
EXTT6=
EXTT7=
EXTT8=
EXTT9=
EXTT10=
EXTT11=
EXTT12=
EXTT13=
EXTT14=
EXTT15=
EXTT16=
EXTT17=
PLAYORDER=
